<svg xmlns="http://www.w3.org/2000/svg" width="741" height="390">
  <rect width="741" height="390" fill="#b22234"></rect>
  <g fill="#fff">
    <rect y="30" width="741" height="30"></rect>
    <rect y="90" width="741" height="30"></rect>
    <rect y="150" width="741" height="30"></rect>
    <rect y="210" width="741" height="30"></rect>
    <rect y="270" width="741" height="30"></rect>
    <rect y="330" width="741" height="30"></rect>
  </g>
  <rect width="296.4" height="210" fill="#3c3b6e"></rect>
  <g fill="#fff">
    <!-- 간략화한 5x6 별 -->
    <g transform="scale(0.9)">
      <g transform="translate(18,18)">
        <g id="s"><polygon points="6,0 7.6,4.7 12,4.7 8.5,7.6 10,12 6,9.4 2,12 3.5,7.6 0,4.7 4.4,4.7"></polygon></g>
        <g transform="translate(24,0)"><use href="#s"></use></g>
        <g transform="translate(48,0)"><use href="#s"></use></g>
        <g transform="translate(72,0)"><use href="#s"></use></g>
        <g transform="translate(96,0)"><use href="#s"></use></g>
        <g transform="translate(12,18)"><use href="#s"></use></g>
        <g transform="translate(36,18)"><use href="#s"></use></g>
        <g transform="translate(60,18)"><use href="#s"></use></g>
        <g transform="translate(84,18)"><use href="#s"></use></g>
        <g transform="translate(108,18)"><use href="#s"></use></g>
        <g transform="translate(0,36)"><use href="#s"></use></g>
        <g transform="translate(24,36)"><use href="#s"></use></g>
        <g transform="translate(48,36)"><use href="#s"></use></g>
        <g transform="translate(72,36)"><use href="#s"></use></g>
        <g transform="translate(96,36)"><use href="#s"></use></g>
      </g>
    </g>
  </g>
</svg>
