<svg width="760" height="520" viewBox="0 0 760 520" fill="none" xmlns="http://www.w3.org/2000/svg">
  <defs>
    <linearGradient id="g1" x1="0" y1="0" x2="1" y2="1">
      <stop offset="0" stop-color="#9AE6B4"></stop>
      <stop offset="1" stop-color="#4ADE80"></stop>
    </linearGradient>
    <linearGradient id="g2" x1="0" y1="0" x2="1" y2="1">
      <stop offset="0" stop-color="#22C55E"></stop>
      <stop offset="1" stop-color="#16A34A"></stop>
    </linearGradient>
  </defs>

  <!-- 배경 장식 -->
  <circle cx="650" cy="90" r="70" fill="#E7F9EE"></circle>
  <circle cx="560" cy="150" r="40" fill="#DFF6E9"></circle>
  <circle cx="700" cy="190" r="28" fill="#D3F3E3"></circle>

  <!-- 책상 -->
  <rect x="120" y="360" width="520" height="14" rx="7" fill="#D1D5DB"></rect>
  <rect x="150" y="374" width="8" height="74" rx="4" fill="#94A3B8"></rect>
  <rect x="602" y="374" width="8" height="74" rx="4" fill="#94A3B8"></rect>

  <!-- 모니터 -->
  <rect x="290" y="190" width="220" height="130" rx="12" fill="#F8FAFC" stroke="#93C5FD" stroke-width="2"></rect>
  <rect x="310" y="208" width="180" height="12" rx="6" fill="#DCFCE7"></rect>
  <rect x="310" y="228" width="140" height="10" rx="5" fill="#E2E8F0"></rect>
  <rect x="310" y="246" width="160" height="10" rx="5" fill="#E2E8F0"></rect>
  <rect x="310" y="264" width="120" height="10" rx="5" fill="#E2E8F0"></rect>
  <rect x="385" y="320" width="30" height="20" rx="4" fill="#94A3B8"></rect>
  <rect x="360" y="340" width="80" height="8" rx="4" fill="#CBD5E1"></rect>

  <!-- 사람(단순화) -->
  <circle cx="250" cy="220" r="22" fill="#16A34A"></circle>
  <rect x="228" y="242" width="44" height="56" rx="10" fill="url(#g2)"></rect>
  <rect x="206" y="298" width="88" height="18" rx="9" fill="#86EFAC"></rect>
  <rect x="206" y="316" width="18" height="44" rx="9" fill="#86EFAC"></rect>
  <rect x="276" y="316" width="18" height="44" rx="9" fill="#86EFAC"></rect>

  <!-- 화분 -->
  <rect x="540" y="310" width="34" height="30" rx="6" fill="#94A3B8"></rect>
  <path d="M557 310c-6 -24 12 -36 22 -50c6 -8 9 -16 9 -22c10 18 10 40 -4 54c-8 8 -16 12 -27 18z" fill="url(#g1)"></path>
  <path d="M548 310c-8 -20 0 -32 10 -44c6 -8 8 -14 8 -19c10 14 6 32 -6 44c-6 6 -8 8 -12 19z" fill="#34D399"></path>

  <!-- 키보드/마우스 -->
  <rect x="330" y="362" width="120" height="10" rx="5" fill="#E5E7EB"></rect>
  <rect x="462" y="362" width="24" height="10" rx="5" fill="#E5E7EB"></rect>

  <!-- 장식 잎사귀 -->
  <path d="M120 340c20 -10 36 -28 44 -52c6 20 0 40 -12 52c-10 10 -20 14 -32 18z" fill="#A7F3D0" opacity=".6"></path>
</svg>
