<!-- /img/brand-mark.svg -->
<svg xmlns="http://www.w3.org/2000/svg" viewBox="0 0 64 64" role="img" aria-label="Little Forest Brand">
  <defs>
    <linearGradient id="g1" x1="0" y1="0" x2="1" y2="1">
      <stop offset="0%" stop-color="#8FD19E"></stop>
      <stop offset="100%" stop-color="#4CAF50"></stop>
    </linearGradient>
    <linearGradient id="g2" x1="0" y1="1" x2="1" y2="0">
      <stop offset="0%" stop-color="#C6F0D1"></stop>
      <stop offset="100%" stop-color="#7CCF8E"></stop>
    </linearGradient>
    <filter id="soft" x="-20%" y="-20%" width="140%" height="140%">
      <feGaussianBlur in="SourceAlpha" stdDeviation="1.6" result="blur"></feGaussianBlur>
      <feOffset dy="0.4" result="off"></feOffset>
      <feMerge>
        <feMergeNode in="off"></feMergeNode>
        <feMergeNode in="SourceGraphic"></feMergeNode>
      </feMerge>
    </filter>
  </defs>

  <!-- 줄기 -->
  <path d="M32 52c-1.6 0-2.4-1.1-2.6-2.8-1.2-8.7.6-19.2 1.1-22.2.3-1.8 3.6-1.8 3.9 0 .5 3 2.3 13.5 1.1 22.2-.2 1.7-1 2.8-2.6 2.8h-.9z" fill="url(#g1)" filter="url(#soft)"></path>

  <!-- 왼쪽 잎 -->
  <path d="M28.5 24.5c-7.6-9.2-19.5-8.2-23.4-5.9-.9.5-.8 1.8.1 2.2 5.9 2.8 12.5 10.7 15.6 16.2 2.3 4 7.1 5.6 11.4 3.7 1.5-.7 2.6-1.7 3.4-3-2.2-5-4.6-9.9-7.1-13.2z" fill="url(#g2)"></path>

  <!-- 오른쪽 잎 -->
  <path d="M35.5 25.2c4.8-6.8 13.7-9.4 19.3-8.5 1 .2 1.5 1.4.8 2.2-3.7 4.2-7.6 12.2-9.4 17.3-1.6 4.6-6.4 7.2-11.1 6-1.6-.4-2.9-1.2-3.9-2.3 1.6-5.2 2.9-10.3 4.3-14.7z" fill="url(#g2)"></path>

  <!-- 잎맥 살짝 -->
  <path d="M23.2 28.8c3.4 2.6 6.2 6.8 7.9 10.5M41.2 26.9c-2.6 3-4.8 7.4-6 10.9" stroke="#62B871" stroke-width="1.4" stroke-linecap="round" opacity=".65"></path>
</svg>
